<svg width="3086" height="1000" viewBox="0 0 3086 1000" xmlns="http://www.w3.org/2000/svg"><title>plex-logo-light</title><defs><radialGradient cx="89.267%" cy="49.76%" fx="89.267%" fy="49.76%" r="92.5%" id="a"><stop stop-color="#F9BE03" offset="0%"/><stop stop-color="#CC7C19" offset="100%"/></radialGradient></defs><g fill="none" fill-rule="evenodd"><path d="M3085.99 0h-290l-290 500 290 500h289.747L2795.99 500.25 3085.99 0" fill="#FFF"/><path d="M2186 0h290l320 500.25-320 500.25h-290l320-500.25L2186 0" fill="url(#a)"/><path d="M2085.947 1000h-577.073V0h577.073v173.737H1721.34V393.3h339.254v173.73H1721.34v257.865h364.607V1000M791.276 1000V0h212.04v824.895h405.61V1000h-617.65" fill="#FFF"/><g fill="#FFF"><path d="M589.947 558.824c-67.268 57.007-162.91 85.5-286.938 85.5h-90.97V1000H0V470.338l290 .36c177.563-2.07 186.842-110.82 186.842-148.498 0-34.98 0-146.755-157.842-148.5l-319 .003V0h319.424C440.717 0 532.94 26.107 596.1 78.32c63.153 52.214 94.734 130.072 94.734 233.582 0 107.625-33.632 189.928-100.887 246.922z"/><path d="M0 110h212.2v429H0z"/></g></g></svg>